<?xml version="1.0" encoding="utf-8"?>
<!-- Generator: Adobe Illustrator 25.0.1, SVG Export Plug-In . SVG Version: 6.00 Build 0)  -->
<svg version="1.1" id="Layer_2" xmlns="http://www.w3.org/2000/svg" xmlns:xlink="http://www.w3.org/1999/xlink" x="0px" y="0px"
	 viewBox="0 0 841.9 208.7" style="enable-background:new 0 0 841.9 208.7;" xml:space="preserve">
<style type="text/css">
	.st0{fill:#FFFFFF;}
</style>
<line class="st0" x1="418.8" y1="112.3" x2="423.1" y2="112.3"/>
<g>
	<path class="st0" d="M817.2,122.4c-3,0-5.4-2.4-5.4-5.4V40c0-9-7.3-16.3-16.3-16.3h-16.3v19h5.4c3,0,5.4,2.4,5.4,5.4v19.6
		c-7.2-8.5-17.3-13.9-28.5-13.9c-21.7,0-39.3,20-39.3,44.8s17.6,44.8,39.3,44.8c11.4,0,21.7-5.6,28.9-14.4
		c1.7,7.1,8.2,12.4,15.9,12.4h16.3v-19H817.2z M767,121.6c-12.7,0-23-10.3-23-23s10.3-23,23-23s23,10.3,23,23S779.7,121.6,767,121.6
		z"/>
	<path class="st0" d="M319.7,55.8c-7.7,0-14.1,5.3-15.9,12.5c-7.2-8.9-17.5-14.4-28.9-14.4c-21.7,0-39.3,20-39.3,44.8
		s17.6,44.8,39.3,44.8c11.2,0,21.3-5.3,28.5-13.9v11c0,12.7-10.3,23.8-23,23.8h-5.2V185h5.1c8.4,0,16.4-1.9,23.1-6
		c13-7.8,21.8-22.1,21.8-38.4V80.3c0-3,2.4-5.4,5.4-5.4h5.4v-19L319.7,55.8L319.7,55.8z M280.3,121.6c-12.7,0-23-10.3-23-23
		s10.3-23,23-23s23,10.3,23,23S293,121.6,280.3,121.6z"/>
	<path class="st0" d="M80.3,53.8c-11.2,0-21.3,5.3-28.5,13.9V40c0-9-7.3-16.3-16.3-16.3H19.2v19h5.4c3,0,5.4,2.4,5.4,5.4l0,0v93.2
		h21.8v-11.9c7.2,8.5,17.3,13.9,28.5,13.9c21.7,0,39.3-20,39.3-44.8C119.6,73.9,102,53.8,80.3,53.8z M74.9,121.7
		c-12.7,0-23-10.3-23-23s10.3-23,23-23s23,10.3,23,23C97.9,111.3,87.6,121.7,74.9,121.7z"/>
	<path class="st0" d="M543.9,52.9c-24.7,0-44.8,20-44.8,44.8s20,44.8,44.8,44.8s44.8-20,44.8-44.8S568.6,52.9,543.9,52.9z
		 M543.9,120.7c-12.7,0-23-10.3-23-23s10.3-23,23-23s23,10.3,23,23S556.6,120.7,543.9,120.7z"/>
	<path class="st0" d="M385,74.9c8.5,0,16,4.6,19.9,11.5l18.9-10.9c-7.7-13.4-22.2-22.4-38.8-22.4c-24.7,0-44.8,20.1-44.8,44.8
		s20.1,44.8,44.8,44.8c16.6,0,31-9,38.8-22.4l-18.9-10.9c-4,6.9-11.4,11.5-19.9,11.5c-12.7,0-23-10.3-23-23S372.3,74.9,385,74.9z"/>
	<path class="st0" d="M465.1,68.3c-1.7-7.2-8.2-12.5-15.8-12.5H433v19h5.4c3,0,5.4,2.4,5.4,5.4v60.2c0,0.3,0,0.6,0,0.9h21.7V98
		c0-12.7,10.3-23,23-23h5.4V53.9C482.6,53.9,472.3,59.4,465.1,68.3z"/>
	<path class="st0" d="M687.2,67l-10.5,39.1l-13.5-50h-16.4l-13.5,50.1l-10.5-39.1c-2.2-6.5-8.3-11.2-15.5-11.2h-14.7v19h6.4
		c2.4,0,4.5,1.6,5.2,3.8c0.1,0.2,16.8,62.8,16.8,62.8h21.9l12.1-45l12.1,45H689c0,0,16.8-62.6,16.8-62.8c0.7-2.2,2.8-3.8,5.2-3.8
		h6.4v-19h-14.7C695.5,55.8,689.4,60.5,687.2,67z"/>
	<path class="st0" d="M229.5,122.4v19h-16.3c-7.7,0-14.1-5.3-15.8-12.4c-6.7,8.3-16.1,13.7-26.6,14.4c-0.3,0-0.6,0-0.9,0.1
		c-0.2,0-0.3,0-0.5,0c-0.3,0-0.6,0-0.9,0c-0.3,0-0.6,0-1,0c-0.2,0-0.3,0-0.5,0c-0.3,0-0.6,0-0.9-0.1c-16.1-1.2-28.8-14.7-28.8-31.1
		V80c0-3-2.4-5.4-5.4-5.4h-5.4v-19h16.3c9,0,16.3,7.3,16.3,16.3V80l0,0v22.8c0,10.4,8.5,18.9,18.9,18.9s18.9-8.5,18.9-18.9V55.6
		h21.8v43v18.3l0,0c0,3,2.4,5.4,5.4,5.4L229.5,122.4L229.5,122.4L229.5,122.4z"/>
</g>
</svg>
