<?xml version="1.0" standalone="no"?>
<!DOCTYPE svg PUBLIC "-//W3C//DTD SVG 20010904//EN"
 "http://www.w3.org/TR/2001/REC-SVG-20010904/DTD/svg10.dtd">
<svg version="1.0" xmlns="http://www.w3.org/2000/svg"
 width="1024.000000pt" height="1024.000000pt" viewBox="0 0 1024.000000 1024.000000"
 preserveAspectRatio="xMidYMid meet">
<metadata>
Created by potrace 1.14, written by Peter Selinger 2001-2017
</metadata>
<g transform="translate(0.000000,1024.000000) scale(0.100000,-0.100000)"
fill="#000000" stroke="none">
<path d="M1878 8708 c0 -46 -2 -87 -3 -93 -2 -5 -3 -63 -4 -127 l-1 -118 -110
0 -110 0 0 -115 0 -115 -105 0 -104 0 -1 -475 0 -475 100 0 100 0 0 -205 0
-205 120 0 120 0 0 -181 0 -182 -612 5 -613 6 0 -82 0 -81 -86 -5 -86 -5 -1
-42 c0 -24 -1 -64 -1 -89 l-1 -45 -100 3 -100 3 0 -232 0 -233 100 0 100 0 0
-90 0 -90 85 0 85 0 0 -72 0 -73 88 0 87 0 3 -92 3 -93 305 0 304 0 -6 243 -7
244 1417 -2 c779 -1 1418 -4 1420 -6 2 -2 7 -322 11 -712 5 -484 11 -710 18
-714 6 -4 73 -9 149 -11 l138 -5 0 -213 0 -214 100 0 c55 0 100 -4 100 -8 0
-5 -45 -7 -100 -4 -84 4 -100 2 -100 -11 0 -21 22 -27 91 -27 32 0 59 -4 59
-9 0 -5 9 -11 21 -14 16 -4 18 -3 8 9 -9 11 -8 14 5 14 14 0 16 -14 16 -100
l0 -100 88 -2 c48 -1 102 -2 120 -3 l32 0 0 -112 0 -113 709 0 708 0 -1 105
-1 105 468 0 467 0 0 -110 0 -110 305 0 305 0 0 -100 0 -100 160 0 160 0 0
-95 0 -95 740 0 740 0 0 -122 0 -121 -838 9 c-460 5 -2239 8 -3953 7 l-3117
-3 -7 115 -7 115 -102 0 -101 0 0 103 0 102 -107 0 -108 0 0 561 0 561 158 6
c86 4 280 7 430 7 l272 0 0 110 0 110 -325 0 -325 0 0 115 0 115 105 0 105 0
0 90 0 90 115 0 115 0 0 -96 0 -95 128 2 127 1 3 -111 3 -111 79 0 80 0 0 205
0 205 -100 0 -100 0 0 125 0 125 -107 0 c-60 1 -208 2 -331 3 l-222 2 0 -125
0 -125 -105 3 -105 3 0 -319 0 -320 -120 1 -120 1 -7 -582 -6 -582 124 0 124
0 0 -222 0 -223 213 -3 212 -2 0 -93 0 -92 3558 -1 c1956 0 3739 2 3961 5
l404 6 -2 87 -2 88 105 0 106 0 1 43 c2 61 -3 426 -6 467 -1 19 -3 62 -4 95
l-1 60 -98 0 -97 0 -3 133 -3 132 -99 0 -100 0 0 173 0 172 -130 -3 -130 -3 0
165 0 166 -130 0 -130 0 0 110 0 110 -245 0 -245 0 0 120 0 120 -205 0 -205 0
0 89 0 88 -276 -1 -276 -1 -2 -85 -1 -85 -125 0 -125 0 -3 88 -3 87 -969 0
-970 0 0 155 0 155 225 0 225 0 0 85 0 85 95 0 95 0 0 75 0 74 83 3 82 3 3 88
3 88 99 -3 100 -4 0 238 0 238 -105 0 -105 0 0 85 0 85 -86 0 -85 0 3 85 3 85
-213 0 c-130 0 -211 -4 -207 -9 3 -6 -6 -7 -22 -2 -16 4 -155 6 -310 5 l-283
-4 0 540 0 540 90 0 91 0 -2 218 c-1 119 -2 265 -1 325 l2 107 63 0 c35 0 132
3 215 7 l152 6 0 314 0 313 -300 0 -300 0 0 -315 0 -315 -122 0 -123 0 0 -210
0 -209 -95 -3 -95 -3 -3 -247 -2 -248 -135 0 -135 0 0 123 0 124 -987 6 c-544
3 -989 4 -991 2 -2 -1 -4 -57 -5 -124 l-2 -121 -117 0 -117 0 0 123 1 122
-109 2 -108 1 0 224 0 223 108 3 107 3 0 104 0 105 123 0 122 0 3 138 c2 75 1
217 -3 314 l-8 177 -223 1 -224 1 -2 -83z m219 -1926 c-1 -81 -3 -12 -3 153 0
165 2 231 3 147 2 -84 2 -219 0 -300z m2900 172 c-3 -3 -12 -4 -19 -1 -8 3 -5
6 6 6 11 1 17 -2 13 -5z m-249 -11 c-27 -2 -69 -2 -95 0 -27 2 -5 3 47 3 52 0
74 -1 48 -3z m-85 -300 c-7 -2 -19 -2 -25 0 -7 3 -2 5 12 5 14 0 19 -2 13 -5z
m-2605 -20 c-26 -2 -71 -2 -100 0 -29 2 -8 3 47 3 55 0 79 -1 53 -3z m3215
-700 c-13 -2 -35 -2 -50 0 -16 2 -5 4 22 4 28 0 40 -2 28 -4z m70 0 c-7 -2
-21 -2 -30 0 -10 3 -4 5 12 5 17 0 24 -2 18 -5z m150 -180 c-13 -2 -35 -2 -50
0 -16 2 -5 4 22 4 28 0 40 -2 28 -4z m154 1 c-3 -3 -12 -4 -19 -1 -8 3 -5 6 6
6 11 1 17 -2 13 -5z m215 -1 c-40 -2 -103 -2 -140 0 -37 2 -4 3 73 3 77 0 107
-2 67 -3z m145 1 c-3 -3 -12 -4 -19 -1 -8 3 -5 6 6 6 11 1 17 -2 13 -5z m191
-1 c-10 -2 -26 -2 -35 0 -10 3 -2 5 17 5 19 0 27 -2 18 -5z m-1281 -965 c-3
-7 -5 -2 -5 12 0 14 2 19 5 13 2 -7 2 -19 0 -25z m0 -110 c-3 -8 -6 -5 -6 6
-1 11 2 17 5 13 3 -3 4 -12 1 -19z m300 -530 c-3 -7 -5 -2 -5 12 0 14 2 19 5
13 2 -7 2 -19 0 -25z m-310 -114 c-3 -3 -12 -4 -19 -1 -8 3 -5 6 6 6 11 1 17
-2 13 -5z m386 -181 c-7 -2 -19 -2 -25 0 -7 3 -2 5 12 5 14 0 19 -2 13 -5z"/>
<path d="M5200 8045 l0 -95 108 0 107 0 -2 52 c-1 29 -2 72 -2 96 l-1 42 -105
0 -105 0 0 -95z"/>
<path d="M1852 5250 c0 -14 2 -19 5 -12 2 6 2 18 0 25 -3 6 -5 1 -5 -13z"/>
<path d="M1853 5175 c0 -27 2 -38 4 -22 2 15 2 37 0 50 -2 12 -4 0 -4 -28z"/>
<path d="M3050 4935 l0 -125 -140 0 -140 0 0 -205 0 -205 70 0 70 0 0 110 0
110 140 0 140 0 0 100 0 100 165 0 165 0 0 -95 0 -95 100 0 100 0 -2 -111 -3
-110 -330 -2 -330 -2 -3 -112 -3 -112 336 -3 335 -3 0 113 0 112 105 0 105 0
0 210 0 209 -97 3 -98 3 -3 118 -3 117 -339 0 -340 0 0 -125z"/>
<path d="M4290 4140 c0 -5 5 -10 10 -10 6 0 10 5 10 10 0 6 -4 10 -10 10 -5 0
-10 -4 -10 -10z"/>
<path d="M4318 4138 c-8 -20 5 -43 25 -44 17 -2 17 0 3 15 -25 27 -19 37 7 13
13 -12 27 -19 30 -15 4 3 7 2 7 -4 0 -6 -8 -14 -17 -17 -14 -6 -15 -9 -4 -15
9 -6 10 -11 2 -15 -6 -4 -11 -4 -11 1 0 4 -5 1 -11 -7 -9 -13 -10 -12 -5 2 3
10 1 20 -4 23 -11 7 -13 -15 -4 -39 5 -14 7 -14 21 0 11 11 19 12 26 5 6 -6
15 -11 21 -11 5 0 2 6 -8 13 -15 11 -16 15 -3 25 11 10 17 9 28 -5 13 -17 13
-17 -5 -3 -18 14 -19 14 -5 -7 11 -19 15 -20 22 -8 4 8 13 15 18 15 6 0 2 -13
-8 -30 -14 -25 -15 -32 -4 -42 11 -11 13 -10 7 0 -4 7 -5 21 -1 30 5 15 9 14
26 -8 14 -18 17 -20 12 -6 -4 11 -2 17 3 13 5 -3 11 5 12 19 1 15 -3 24 -13
24 -7 0 -17 5 -20 10 -3 6 15 2 42 -9 38 -15 49 -25 54 -47 4 -18 7 0 8 48 l1
77 -109 0 c-59 0 -115 3 -123 6 -9 4 -18 0 -20 -7z m122 -38 c0 -5 -5 -10 -11
-10 -5 0 -7 5 -4 10 3 6 8 10 11 10 2 0 4 -4 4 -10z m43 -71 c-8 -8 -13 -7
-18 2 -5 8 -4 10 3 5 7 -4 12 -2 12 5 0 7 3 9 7 6 4 -4 2 -12 -4 -18z"/>
<path d="M4518 4033 c7 -3 16 -2 19 1 4 3 -2 6 -13 5 -11 0 -14 -3 -6 -6z"/>
<path d="M1887 3553 c-4 -3 -7 -60 -7 -125 l0 -118 755 0 756 0 -3 123 -3 122
-746 3 c-410 1 -749 -1 -752 -5z"/>
<path d="M9420 2766 c0 -3 9 -10 20 -16 11 -6 20 -8 20 -6 0 3 -9 10 -20 16
-11 6 -20 8 -20 6z"/>
<path d="M9483 2743 c0 -9 4 -10 14 -2 7 6 13 12 13 14 0 1 -6 2 -13 2 -8 0
-14 -6 -14 -14z"/>
<path d="M9502 2723 c-20 -14 -25 -14 -33 -2 -7 11 -9 12 -9 0 0 -11 -3 -11
-17 0 -15 13 -15 12 -5 -7 6 -12 8 -25 4 -29 -4 -5 -1 -5 6 -1 15 9 15 1 2
-25 -6 -11 -7 -19 -1 -19 11 0 23 47 16 63 -4 7 0 4 8 -5 17 -22 33 -23 41 -3
7 18 27 20 24 3 -2 -8 9 -13 30 -12 29 1 33 -2 28 -19 -3 -14 -2 -17 6 -9 11
11 4 43 -9 41 -4 -1 -11 0 -15 1 -5 1 -11 3 -15 5 -26 7 -42 18 -37 26 7 12 3
11 -24 -8z m8 -18 c-7 -9 -15 -13 -19 -10 -3 3 1 10 9 15 21 14 24 12 10 -5z"/>
<path d="M9620 2716 c0 -8 4 -17 9 -20 5 -4 7 3 4 14 -6 23 -13 26 -13 6z"/>
<path d="M9651 2718 c-1 -20 14 -24 25 -6 4 6 3 8 -4 4 -5 -3 -13 0 -15 6 -3
8 -6 6 -6 -4z"/>
<path d="M9378 2703 c7 -3 16 -2 19 1 4 3 -2 6 -13 5 -11 0 -14 -3 -6 -6z"/>
<path d="M9713 2689 c-2 -23 3 -25 10 -4 4 8 3 16 -1 19 -4 3 -9 -4 -9 -15z"/>
<path d="M9763 2660 c0 -30 2 -43 4 -27 2 15 2 39 0 55 -2 15 -4 2 -4 -28z"/>
<path d="M9415 2691 c-3 -5 -1 -12 5 -16 5 -3 10 1 10 9 0 18 -6 21 -15 7z"/>
<path d="M9334 2678 c-4 -6 -3 -8 3 -5 6 4 14 0 17 -9 5 -14 9 -14 23 -3 14
13 16 11 11 -19 -2 -17 -1 -32 4 -32 4 0 8 14 8 30 0 24 -6 33 -26 40 -32 12
-31 12 -40 -2z"/>
<path d="M9520 2670 c0 -6 7 -10 15 -10 8 0 15 2 15 4 0 2 -7 6 -15 10 -8 3
-15 1 -15 -4z"/>
<path d="M9470 2660 c0 -5 5 -10 10 -10 6 0 10 5 10 10 0 6 -4 10 -10 10 -5 0
-10 -4 -10 -10z"/>
<path d="M9558 2648 c-2 -19 -9 -23 -40 -22 -21 0 -38 -3 -38 -8 0 -4 19 -8
43 -8 40 0 43 2 45 30 3 35 -5 41 -10 8z"/>
<path d="M9320 2651 c0 -6 4 -13 10 -16 6 -3 7 1 4 9 -7 18 -14 21 -14 7z"/>
<path d="M9410 2630 c0 -16 6 -20 33 -19 23 1 26 3 10 6 -13 2 -23 11 -23 19
0 8 -4 14 -10 14 -5 0 -10 -9 -10 -20z"/>
<path d="M9735 2640 c-3 -5 -1 -10 4 -10 6 0 11 5 11 10 0 6 -2 10 -4 10 -3 0
-8 -4 -11 -10z"/>
<path d="M9280 2628 c0 -14 8 -18 33 -17 27 2 28 2 7 6 -14 3 -28 10 -32 17
-5 7 -8 5 -8 -6z"/>
<path d="M9357 2633 c-10 -9 -9 -23 1 -23 5 0 9 7 9 15 0 17 -1 18 -10 8z"/>
<path d="M9596 2625 c4 -8 8 -15 10 -15 2 0 4 7 4 15 0 8 -4 15 -10 15 -5 0
-7 -7 -4 -15z"/>
<path d="M8808 2613 c6 -2 18 -2 25 0 6 3 1 5 -13 5 -14 0 -19 -2 -12 -5z"/>
<path d="M8918 2613 c6 -2 18 -2 25 0 6 3 1 5 -13 5 -14 0 -19 -2 -12 -5z"/>
<path d="M8983 2613 c9 -2 23 -2 30 0 6 3 -1 5 -18 5 -16 0 -22 -2 -12 -5z"/>
<path d="M9128 2613 c12 -2 30 -2 40 0 9 3 -1 5 -23 4 -22 0 -30 -2 -17 -4z"/>
<path d="M9218 2613 c6 -2 18 -2 25 0 6 3 1 5 -13 5 -14 0 -19 -2 -12 -5z"/>
<path d="M9703 2613 c9 -2 25 -2 35 0 9 3 1 5 -18 5 -19 0 -27 -2 -17 -5z"/>
<path d="M9772 2300 c0 -14 2 -19 5 -12 2 6 2 18 0 25 -3 6 -5 1 -5 -13z"/>
<path d="M9772 2250 c0 -14 2 -19 5 -12 2 6 2 18 0 25 -3 6 -5 1 -5 -13z"/>
</g>
</svg>
