<?xml version="1.0" standalone="no"?>
<!DOCTYPE svg PUBLIC "-//W3C//DTD SVG 20010904//EN"
 "http://www.w3.org/TR/2001/REC-SVG-20010904/DTD/svg10.dtd">
<svg version="1.0" xmlns="http://www.w3.org/2000/svg"
 width="1036.000000pt" height="1036.000000pt" viewBox="0 0 1036.000000 1036.000000"
 preserveAspectRatio="xMidYMid meet">
<metadata>
Created by potrace 1.14, written by Peter Selinger 2001-2017
</metadata>
<g transform="translate(0.000000,1036.000000) scale(0.100000,-0.100000)"
fill="#000000" stroke="none">
<path d="M2315 8771 c6 -10 3 -12 -13 -7 -24 8 -33 -10 -38 -74 -2 -25 -6 -67
-10 -95 -3 -27 -7 -72 -9 -100 -2 -27 -4 -50 -5 -50 -1 0 -3 -18 -6 -39 -5
-50 -18 -65 -44 -48 -13 8 -21 8 -26 1 -4 -8 -10 -7 -16 2 -7 10 -11 11 -14 2
-3 -7 -12 -9 -20 -6 -7 3 -11 9 -8 14 3 5 0 9 -5 9 -6 0 -11 -5 -11 -12 0 -8
-3 -9 -11 -1 -12 12 -59 5 -64 -11 -3 -9 -7 -53 -18 -181 -2 -22 -16 -23 -144
-11 l-73 7 -1 -28 c-3 -49 -15 -185 -24 -253 -2 -19 -7 -64 -10 -100 -3 -36
-7 -77 -10 -90 -3 -14 -7 -59 -10 -100 -3 -41 -7 -91 -9 -110 -4 -40 -15 -147
-21 -202 -2 -21 -1 -38 3 -39 4 0 16 -2 27 -5 28 -6 85 -12 118 -13 30 -1 29
8 11 -146 -3 -27 -7 -70 -9 -95 -1 -25 -4 -45 -5 -45 -1 0 -4 -25 -6 -55 -2
-30 -6 -60 -9 -67 -2 -8 4 -13 18 -14 12 0 31 -2 42 -5 11 -2 54 -7 95 -10 83
-7 91 -9 85 -27 -5 -13 -8 -46 -30 -277 -2 -19 -4 -36 -5 -37 -2 -2 -3 -9 -4
-15 -1 -7 -12 -12 -26 -11 -116 11 -232 23 -280 29 -25 4 -67 8 -95 9 -27 2
-50 4 -50 5 0 1 -20 4 -45 6 -56 4 -144 13 -190 19 -76 10 -167 18 -202 19
-21 1 -38 3 -38 7 0 3 -10 5 -22 5 -20 1 -67 5 -210 19 -24 2 -38 -1 -39 -8
-1 -12 -7 -61 -13 -112 -2 -16 -5 -36 -5 -43 -1 -8 -8 -11 -18 -8 -10 2 -51 8
-90 11 -71 7 -73 6 -74 -17 -5 -121 -15 -161 -37 -154 -9 3 -51 8 -92 11 -41
4 -78 9 -81 11 -10 6 -16 -17 -14 -53 0 -18 -2 -33 -5 -33 -3 0 -7 -26 -8 -57
-1 -32 -4 -69 -7 -83 -3 -14 -7 -50 -10 -80 -3 -30 -7 -74 -10 -97 -4 -39 -2
-43 18 -44 12 0 33 -3 47 -5 34 -6 80 -12 112 -13 26 -1 27 -3 21 -43 -3 -24
-7 -65 -7 -92 -1 -48 0 -49 29 -51 17 -1 53 -5 82 -9 51 -8 51 -8 43 -37 -5
-16 -6 -29 -3 -29 3 0 0 -7 -8 -16 -10 -13 -10 -17 1 -24 12 -7 12 -11 0 -27
-8 -10 -11 -15 -6 -11 5 4 18 3 29 -3 14 -8 18 -8 13 0 -4 6 -2 11 3 11 6 0
11 -4 11 -10 0 -5 7 -6 17 -3 12 5 14 3 8 -8 -7 -11 -6 -12 7 -2 8 7 18 10 22
6 10 -11 37 -12 30 -2 -3 5 -1 9 4 9 5 0 14 -10 21 -22 6 -13 9 -15 6 -5 -2
10 -1 15 4 12 5 -3 8 -18 6 -33 -2 -15 -4 -38 -4 -52 -1 -20 -3 -22 -11 -10
-6 9 -10 10 -10 3 0 -6 5 -15 10 -18 6 -3 10 -11 10 -16 0 -6 -6 -7 -12 -3 -8
5 -7 0 2 -11 11 -14 11 -17 1 -11 -10 7 -12 3 -6 -15 4 -13 8 -25 9 -26 1 -1
68 -9 151 -18 28 -3 70 -7 95 -10 25 -2 92 -9 150 -15 147 -15 182 -20 190
-25 3 -2 4 -20 2 -39 -2 -20 -8 -33 -13 -30 -5 3 -9 1 -9 -5 0 -5 6 -12 13
-14 9 -4 8 -8 -3 -16 -13 -10 -13 -11 0 -11 11 0 12 -2 3 -8 -7 -5 -10 -19 -7
-36 3 -18 1 -25 -6 -21 -13 8 -9 -17 5 -27 6 -5 6 -8 -1 -8 -7 0 -9 -11 -6
-26 4 -21 2 -25 -9 -19 -11 7 -12 6 -3 -6 10 -12 10 -26 0 -74 -1 -5 -6 -16
-10 -24 -6 -9 -5 -12 2 -7 7 4 10 -1 9 -14 -1 -11 -5 -20 -10 -20 -5 0 -4 -7
3 -15 11 -13 10 -40 -5 -175 -2 -19 -9 -84 -15 -145 -7 -60 -13 -119 -15 -130
-2 -11 -4 -28 -4 -38 -1 -15 -6 -17 -31 -12 -16 4 -51 8 -77 10 -27 2 -73 7
-103 10 -30 4 -52 3 -48 -1 5 -4 2 -14 -5 -22 -9 -13 -9 -14 0 -8 7 4 13 2 13
-3 0 -6 -4 -11 -8 -11 -5 0 -7 -14 -4 -30 2 -17 -1 -37 -8 -45 -7 -9 -10 -18
-6 -22 3 -3 6 0 6 7 0 7 3 10 6 7 4 -4 1 -13 -6 -22 -7 -8 -8 -15 -3 -15 5 0
8 -13 5 -30 -3 -19 -8 -27 -16 -23 -6 4 -5 -1 3 -10 7 -9 9 -17 4 -17 -6 0 -8
-12 -5 -26 3 -18 1 -25 -6 -20 -11 7 -10 -19 1 -30 10 -11 9 -26 -2 -20 -5 4
-7 -4 -3 -16 4 -16 2 -19 -9 -13 -12 7 -12 6 -1 -7 9 -11 10 -18 2 -23 -5 -3
-10 -12 -10 -18 0 -7 4 -6 10 3 8 13 10 12 10 -2 0 -10 -5 -18 -11 -18 -8 0
-8 -5 1 -15 7 -9 8 -15 2 -15 -15 0 -24 -31 -12 -45 8 -10 8 -15 -1 -20 -8 -6
-7 -10 2 -16 8 -5 10 -9 4 -9 -5 0 -11 -21 -13 -47 -1 -25 -8 -53 -15 -62 -9
-12 -9 -13 0 -7 9 5 13 0 13 -14 0 -13 -4 -19 -11 -14 -7 4 -7 -1 1 -16 11
-20 10 -22 -5 -16 -15 5 -16 4 -5 -9 10 -12 10 -15 -1 -15 -9 0 -10 -3 -4 -8
16 -10 12 -55 -5 -70 -8 -8 -9 -11 -3 -7 9 4 13 -1 13 -15 0 -12 -4 -19 -8
-16 -4 2 -8 -6 -8 -19 0 -13 4 -22 8 -19 10 6 -2 -26 -16 -45 -8 -11 -8 -13 2
-7 17 10 15 -4 -5 -28 -17 -20 -17 -20 0 -7 10 8 17 9 17 3 0 -6 -4 -13 -9
-16 -5 -3 -7 -16 -3 -28 4 -16 2 -19 -9 -13 -12 7 -12 6 -1 -7 10 -13 10 -17
0 -21 -11 -4 -10 -6 0 -6 8 -1 10 -6 6 -13 -4 -7 -8 -21 -9 -32 0 -18 6 -21
48 -21 47 0 73 -17 60 -39 -3 -5 -7 -25 -9 -45 -9 -105 -14 -159 -19 -190 -7
-55 -18 -173 -19 -216 -1 -29 3 -40 14 -41 8 0 28 -2 43 -2 16 -1 26 -6 23
-10 -3 -5 -8 -46 -11 -90 -5 -73 -3 -82 12 -83 10 0 32 -2 48 -4 113 -11 194
-19 218 -19 15 -1 27 -3 27 -6 0 -3 23 -6 52 -7 76 -2 118 -12 113 -26 -3 -7
-7 -27 -9 -44 -3 -28 0 -33 18 -34 11 0 30 -2 41 -5 11 -2 47 -6 80 -9 33 -3
76 -8 95 -10 19 -2 64 -7 100 -10 36 -3 81 -8 100 -10 19 -3 58 -7 85 -10 28
-2 66 -6 85 -9 19 -2 71 -7 115 -11 44 -4 88 -9 98 -11 10 -2 46 -6 80 -9 34
-4 76 -8 92 -10 17 -2 62 -6 100 -10 39 -3 84 -8 100 -10 17 -2 57 -6 90 -10
33 -3 98 -10 145 -15 47 -5 112 -12 145 -15 33 -4 74 -8 90 -10 29 -4 58 -7
195 -20 36 -4 81 -9 100 -11 19 -2 62 -7 95 -9 33 -3 74 -7 90 -10 17 -2 64
-7 105 -11 41 -3 84 -8 95 -10 11 -2 49 -6 85 -9 36 -3 81 -8 100 -10 19 -3
59 -7 88 -10 96 -9 157 -16 182 -20 14 -2 57 -6 95 -10 72 -6 131 -12 200 -20
22 -2 87 -9 145 -15 58 -6 116 -13 130 -15 14 -2 59 -6 100 -10 41 -4 89 -8
105 -10 17 -2 57 -7 90 -10 139 -14 244 -25 280 -30 17 -2 62 -7 100 -10 39
-3 84 -8 100 -10 17 -2 57 -7 90 -10 33 -4 74 -8 90 -10 17 -2 62 -7 100 -10
39 -4 84 -8 100 -10 54 -7 139 -15 200 -20 33 -3 67 -7 75 -10 8 -2 52 -7 97
-10 46 -3 93 -8 105 -10 12 -3 47 -7 77 -9 31 -3 74 -7 96 -10 53 -6 161 -17
205 -21 40 -4 227 -24 280 -30 49 -6 148 -16 195 -20 22 -2 58 -6 80 -9 22 -2
69 -7 105 -11 36 -3 81 -8 100 -10 19 -2 62 -7 95 -10 75 -7 127 -12 185 -20
25 -3 65 -7 90 -9 25 -3 65 -7 90 -10 44 -5 104 -11 205 -21 28 -3 68 -7 90
-10 71 -7 149 -15 195 -20 25 -2 65 -7 90 -9 73 -8 184 -20 290 -30 30 -3 71
-7 90 -10 36 -5 116 -14 205 -22 28 -2 65 -7 84 -10 27 -4 33 -2 28 9 -3 8 -3
18 1 22 3 3 7 16 8 28 1 20 12 129 19 202 2 17 4 38 4 49 1 19 10 19 179 2 27
-3 32 0 34 18 1 21 4 37 8 46 1 3 3 19 3 35 1 17 5 35 10 42 4 6 3 14 -3 18
-6 4 -7 12 0 24 6 12 5 22 -3 30 -9 9 -8 16 1 32 8 12 9 18 3 14 -6 -3 -11 -1
-11 4 0 6 4 11 10 11 5 0 7 7 4 15 -4 9 0 15 7 15 9 0 10 3 4 8 -16 11 -19 46
-3 36 10 -6 10 -4 -1 9 -9 11 -10 17 -2 17 7 0 9 9 5 26 -6 22 -4 25 7 19 12
-8 12 -6 0 8 -11 14 -11 17 0 17 11 0 11 2 -1 10 -13 9 -13 11 0 20 8 5 11 10
6 10 -5 0 -2 8 5 17 8 9 9 14 3 10 -7 -4 -11 2 -11 18 0 14 3 23 6 20 4 -2 5
10 3 27 -4 24 -2 29 9 23 11 -6 12 -5 2 6 -17 17 -17 32 0 23 6 -4 5 0 -3 9
-9 10 -40 18 -80 22 -36 3 -74 7 -85 9 -11 3 -26 5 -32 5 -17 1 -17 48 0 54 9
4 8 6 -2 6 -11 1 -11 4 0 18 12 15 12 16 -1 8 -9 -5 -7 1 5 15 11 13 14 20 7
16 -16 -10 -11 26 8 49 11 14 11 16 -1 13 -17 -4 -14 49 4 71 9 11 9 13 0 8
-6 -4 -13 -3 -15 2 -1 5 -32 12 -68 15 -126 13 -120 9 -113 74 3 31 7 72 7 90
0 17 3 32 6 32 3 0 6 21 7 48 2 26 4 63 6 82 l3 35 -55 2 c-30 1 -59 7 -65 13
-5 5 -15 10 -20 10 -6 0 -4 -5 4 -10 12 -8 11 -10 -7 -10 -13 0 -23 5 -23 10
0 6 -5 10 -11 10 -5 0 -7 -5 -3 -12 5 -7 3 -8 -7 -2 -8 4 -25 7 -38 5 -14 -2
-21 1 -17 8 4 7 1 9 -8 5 -16 -6 -16 -7 -1 121 2 22 7 67 10 100 4 33 9 68 11
78 3 9 0 17 -6 17 -6 0 -9 4 -6 8 3 5 -1 9 -9 9 -8 0 -12 -3 -10 -7 2 -3 -12
-4 -32 -2 -24 3 -31 7 -22 13 9 6 10 9 2 9 -6 0 -15 -5 -18 -11 -5 -6 -12 -4
-21 8 -13 17 -14 17 -8 -1 6 -17 5 -17 -17 -5 -30 16 -51 20 -43 8 3 -5 0 -9
-5 -9 -6 0 -11 4 -11 9 0 4 -11 6 -25 3 -14 -2 -25 0 -25 7 0 5 8 8 18 5 15
-5 15 -4 -1 6 -15 10 -16 14 -5 28 10 13 10 14 0 8 -10 -6 -11 -1 -6 21 5 15
8 42 8 58 1 17 8 36 16 43 8 8 9 11 3 7 -9 -4 -13 1 -13 15 0 25 -7 28 -90 34
-36 3 -83 8 -105 11 -50 6 -131 14 -215 21 -57 5 -85 17 -75 34 3 5 16 134 19
189 1 17 -5 25 -19 27 -21 4 -134 15 -172 18 -12 1 -25 5 -29 9 -4 3 -15 2
-25 -4 -11 -5 -19 -6 -19 -1 0 4 -8 8 -17 9 -87 5 -103 7 -103 15 0 5 -5 6
-11 2 -8 -4 -9 1 -4 17 5 13 8 36 7 52 0 15 3 25 7 23 4 -3 8 1 8 9 0 8 -5 11
-10 8 -6 -3 -6 1 0 12 15 26 4 55 -21 56 -11 1 -30 3 -41 4 -45 7 -124 15
-185 21 -36 3 -76 7 -90 9 -14 2 -61 7 -105 10 -44 4 -83 9 -87 11 -12 7 -16
-9 -22 -90 -3 -44 -11 -83 -16 -86 -9 -6 -55 -5 -55 0 0 1 -20 4 -45 5 -63 4
-118 12 -129 19 -9 6 -10 52 0 71 2 6 4 32 4 59 0 36 -4 49 -15 51 -8 1 -49 5
-90 9 -41 3 -86 8 -100 10 -14 3 -54 7 -90 10 -117 11 -175 17 -205 21 -47 6
-145 16 -205 21 -30 2 -77 6 -105 9 -27 3 -75 7 -105 9 -30 3 -55 5 -55 6 0 3
-66 9 -131 14 -34 2 -66 5 -70 8 -10 5 -74 11 -141 12 -24 1 -43 4 -43 7 0 3
-16 6 -35 7 -19 1 -51 3 -70 4 -19 1 -35 5 -35 9 0 5 -10 5 -23 0 -13 -5 -30
-5 -39 0 -9 5 -27 9 -40 8 -12 0 -41 2 -63 5 -22 3 -74 8 -115 12 -90 7 -124
11 -127 14 -2 1 -9 3 -15 4 -13 1 -14 65 -2 151 3 22 6 47 6 55 0 8 5 21 11
28 5 6 6 12 1 12 -5 0 -9 13 -9 29 0 16 3 27 8 24 4 -2 7 3 7 12 0 9 5 13 10
10 6 -4 7 -12 3 -18 -5 -8 -2 -8 9 0 8 7 18 10 22 6 4 -4 22 -6 41 -5 18 1 36
-2 40 -8 5 -8 11 -7 21 1 11 9 14 8 14 -2 0 -11 2 -11 10 1 5 9 10 10 10 3 0
-7 11 -10 29 -7 16 3 32 0 36 -7 6 -8 10 -7 16 2 5 8 9 9 9 4 0 -7 15 -9 35
-7 24 3 35 0 35 -9 0 -10 3 -10 11 -2 13 13 42 6 33 -8 -3 -5 0 -9 5 -9 6 0
11 5 11 10 0 6 7 10 15 10 8 0 15 5 15 11 0 5 5 7 12 3 7 -5 8 -3 2 7 -12 19
-12 33 1 41 6 5 6 8 -2 8 -13 0 -6 37 11 59 8 11 8 13 -1 7 -8 -4 -13 -2 -13
7 0 15 21 16 151 3 30 -2 46 0 47 8 11 112 20 149 37 142 8 -3 15 0 15 7 0 9
2 9 8 -1 5 -8 16 -10 27 -6 11 5 16 3 12 -2 -3 -6 8 -8 29 -6 24 3 34 0 34 -9
1 -8 8 0 17 16 20 36 25 57 11 49 -7 -4 -7 0 0 12 5 11 7 25 4 33 -3 9 0 11 8
6 9 -5 11 -4 6 3 -4 7 -9 20 -11 31 -3 16 3 18 56 17 32 0 59 -3 59 -6 0 -3
24 -6 53 -5 l52 0 -3 34 c-3 25 -1 31 10 26 10 -6 10 -5 2 4 -15 16 -6 53 10
44 6 -4 5 1 -3 11 -13 15 -13 19 0 27 8 5 9 9 3 9 -6 0 -11 7 -11 15 0 8 4 15
9 15 5 0 6 5 3 10 -3 6 0 10 7 10 9 0 9 3 -2 10 -13 8 -13 13 -2 31 8 11 9 18
3 14 -6 -3 -11 -1 -11 4 0 6 4 11 10 11 5 0 6 7 3 17 -5 12 -3 14 8 8 11 -6
12 -5 2 6 -14 15 -18 43 -5 35 5 -3 9 1 9 9 0 8 -5 11 -10 8 -6 -4 -7 -1 -2 7
7 12 9 41 6 80 -1 6 -12 10 -25 10 -14 0 -28 5 -31 10 -5 8 -11 7 -21 -1 -8
-6 -14 -8 -14 -3 0 5 -19 9 -43 9 -50 -1 -69 4 -61 16 3 5 -1 9 -8 9 -9 0 -9
3 2 10 8 5 11 10 5 10 -5 0 -3 5 5 10 8 5 10 10 5 10 -19 0 -15 40 3 41 11 0
12 3 5 6 -16 6 -17 43 -1 43 21 0 0 11 -29 16 -50 7 -97 13 -121 13 -22 1 -23
4 -18 59 2 31 5 57 6 57 6 0 5 57 -1 60 -4 3 -31 7 -61 10 -29 3 -69 7 -88 9
-95 12 -131 16 -200 21 -93 8 -116 12 -131 21 -8 5 -9 3 -4 -6 6 -9 4 -11 -4
-5 -7 4 -29 9 -49 11 -21 2 -62 6 -92 9 -30 4 -75 8 -100 11 -44 4 -104 10
-185 19 -22 3 -52 6 -66 6 -23 2 -26 6 -24 33 4 33 12 114 20 181 2 22 7 69
10 105 8 82 12 107 19 119 4 5 2 12 -4 16 -7 4 -7 12 0 25 12 22 10 42 -5 52
-6 5 -5 8 3 8 6 0 12 5 12 11 0 5 -4 8 -8 5 -11 -7 -9 25 3 44 5 8 8 27 7 43
-2 16 3 36 10 45 10 12 10 14 1 8 -16 -9 -17 6 -1 22 9 9 9 15 1 23 -13 13 -6
42 8 33 5 -3 4 7 -1 21 -13 33 -13 38 0 30 6 -3 10 -2 10 4 0 5 -5 13 -11 16
-6 5 -4 12 8 22 10 8 12 12 6 8 -16 -8 -17 10 -2 37 9 16 8 19 -2 13 -8 -6
-10 -4 -3 6 4 7 7 29 5 48 -2 20 3 37 11 42 11 7 10 9 -1 9 -11 0 -10 4 5 16
10 8 13 12 6 9 -11 -6 -11 -3 0 14 8 13 19 19 29 16 10 -3 45 -8 78 -10 50 -3
61 -1 61 11 0 9 5 12 13 8 8 -5 8 -2 -2 9 -11 14 -11 17 0 17 11 0 11 2 -1 10
-10 7 -11 10 -2 10 8 0 10 9 6 28 -3 15 -2 22 3 15 5 -6 9 15 9 50 2 96 6 117
18 117 8 0 7 3 -1 8 -16 10 -5 94 11 85 6 -4 5 1 -3 10 -11 14 -11 20 -1 32
15 18 44 21 34 3 -5 -9 -2 -9 9 1 9 7 17 9 17 4 0 -5 15 -9 33 -9 65 -1 117
-8 117 -16 0 -4 9 0 20 9 11 10 15 20 9 23 -5 4 -7 14 -3 23 3 9 9 15 13 13 3
-2 6 6 6 19 0 13 -2 22 -5 20 -10 -6 2 70 13 83 8 10 7 16 -4 23 -9 7 20 8 89
4 70 -4 102 -3 102 4 0 6 0 12 0 14 1 1 5 19 9 40 6 26 6 37 -3 37 -7 0 -7 3
-1 8 6 4 11 12 12 17 2 14 13 130 18 190 3 28 7 68 9 90 3 22 8 69 11 105 4
35 8 67 11 71 2 4 0 10 -6 14 -6 4 -8 11 -4 16 3 6 -5 7 -21 3 -18 -4 -30 -2
-36 7 -6 10 -9 11 -9 2 0 -7 -5 -13 -11 -13 -5 0 -7 5 -3 11 5 8 2 9 -12 1
-14 -8 -21 -6 -32 6 -7 10 -11 11 -7 5 4 -8 0 -13 -9 -13 -8 0 -17 6 -19 13
-4 10 -6 10 -6 0 -1 -7 -6 -13 -12 -13 -5 0 -7 6 -3 13 6 9 5 9 -7 0 -12 -10
-18 -10 -27 -1 -7 7 -12 9 -12 5 0 -4 -10 -3 -21 4 -15 8 -19 8 -15 0 4 -6 0
-11 -9 -11 -9 0 -13 4 -10 10 3 6 -1 7 -9 4 -10 -4 -16 -1 -16 7 0 8 -6 5 -15
-7 -8 -10 -15 -14 -15 -7 0 7 -7 10 -17 6 -12 -5 -14 -3 -8 8 7 11 5 11 -10
-1 -11 -9 -16 -10 -11 -2 9 14 1 15 -23 3 -12 -7 -26 -5 -44 4 -15 8 -27 10
-27 5 0 -4 -9 -6 -20 -3 -11 3 -17 10 -13 17 3 6 0 6 -8 -1 -15 -15 -33 -17
-25 -4 4 5 -5 4 -18 -2 -14 -7 -24 -19 -24 -27 0 -8 -4 -46 -8 -85 -4 -38 -7
-85 -8 -102 -1 -18 -4 -33 -7 -33 -3 0 -6 -17 -6 -37 0 -21 -3 -63 -7 -93 -3
-30 -8 -82 -12 -115 -3 -33 -7 -69 -9 -80 -2 -11 -4 -28 -4 -37 -1 -19 -31
-26 -31 -8 0 6 -5 10 -11 10 -5 0 -8 -4 -5 -8 3 -5 -1 -9 -9 -9 -8 0 -15 4
-15 9 0 5 -12 5 -26 2 -22 -6 -25 -4 -19 7 7 11 5 11 -10 -1 -11 -9 -16 -10
-11 -2 4 6 2 12 -3 12 -6 0 -11 -6 -11 -12 0 -10 -3 -9 -9 1 -7 10 -10 10 -13
1 -3 -9 -9 -8 -21 4 -9 10 -17 13 -17 7 0 -6 -7 -11 -15 -11 -8 0 -15 -8 -16
-17 0 -10 -2 -26 -4 -36 -2 -10 -6 -47 -9 -83 -3 -35 -8 -69 -11 -74 -3 -6 0
-10 7 -10 9 0 9 -3 2 -8 -10 -7 -13 -22 -17 -117 -1 -22 -6 -45 -12 -50 -16
-17 -58 -15 -78 2 -16 15 -17 15 -12 1 5 -13 2 -15 -14 -11 -12 3 -18 10 -14
17 4 6 0 5 -9 -2 -13 -10 -17 -10 -21 0 -4 11 -6 10 -6 0 -1 -7 -5 -11 -10 -7
-12 7 -18 -15 -26 -90 -3 -33 -8 -80 -11 -105 -10 -86 -12 -105 -20 -185 -4
-44 -7 -84 -5 -89 4 -16 -20 -24 -58 -18 -20 3 -55 6 -78 6 -24 1 -43 4 -43 7
0 3 -26 7 -57 8 -32 1 -60 4 -63 7 -6 7 -7 94 0 94 3 0 6 19 7 43 2 23 5 57 7
75 2 24 -1 32 -13 33 -9 0 -34 2 -56 4 -22 2 -68 7 -103 10 -35 4 -71 8 -80
10 -9 1 -52 6 -94 10 -43 3 -88 8 -100 10 -13 3 -53 7 -88 10 -68 5 -121 10
-205 20 -27 4 -68 8 -90 10 -22 3 -65 7 -95 10 -77 8 -131 13 -197 20 -32 3
-69 7 -83 9 -14 2 -57 7 -95 10 -39 4 -81 8 -95 11 -14 2 -56 6 -95 9 -38 3
-81 8 -95 10 -14 2 -56 7 -95 11 -146 13 -247 25 -256 30 -11 7 -27 -95 -30
-188 0 -10 -5 -15 -12 -11 -8 5 -8 3 1 -7 14 -16 16 -33 2 -24 -5 3 -10 2 -10
-3 0 -5 -19 -7 -42 -6 -64 5 -132 12 -138 14 -3 1 -12 3 -20 4 -11 1 -14 11
-11 41 2 22 5 54 6 70 2 17 3 30 4 30 1 0 4 27 5 60 l4 61 -40 -1 c-26 -1 -42
4 -45 13 -5 11 -7 11 -14 0 -8 -11 -10 -11 -18 1 -7 11 -9 11 -13 0 -4 -12 -9
-12 -27 -1 -17 10 -21 10 -21 0 0 -8 -7 -5 -15 6 -9 12 -15 15 -15 7 0 -11 -3
-11 -15 -1 -8 7 -13 15 -10 19 2 4 7 36 10 72 3 35 8 80 10 99 4 38 11 101 20
194 3 32 8 62 11 67 2 4 21 6 42 3 20 -3 66 -6 102 -7 l65 -2 2 30 c6 119 28
177 58 156 5 -4 55 -7 110 -6 96 0 100 1 103 23 2 14 8 20 15 16 8 -5 8 -2 0
7 -15 15 -18 33 -5 25 5 -3 9 1 9 9 0 8 -3 12 -7 10 -9 -5 -6 27 4 43 4 6 5
16 2 21 -4 5 0 12 6 14 10 4 10 6 1 6 -7 1 -13 6 -13 12 0 5 4 8 9 5 5 -4 7 4
3 16 -4 16 -2 19 9 13 12 -8 12 -6 1 8 -8 9 -10 22 -6 29 11 18 12 48 2 48 -5
0 -6 5 -3 10 4 6 10 8 14 6 4 -3 8 1 8 9 0 8 -4 12 -9 9 -4 -3 -8 2 -8 11 0
10 5 14 13 9 9 -5 9 -4 0 6 -10 11 -9 16 5 27 9 8 11 12 5 8 -7 -3 -13 0 -13
7 0 8 6 20 13 27 10 11 10 13 0 7 -7 -4 -13 -3 -13 1 0 5 6 15 13 22 10 11 9
12 -3 6 -13 -8 -13 -6 -2 7 10 13 10 18 1 24 -9 5 -7 11 6 21 11 7 14 13 8 13
-11 0 -9 35 3 69 3 11 1 11 -9 3 -10 -9 -18 -8 -33 2 -15 11 -22 12 -33 3 -12
-10 -13 -9 -7 8 6 16 5 18 -5 8 -16 -16 -59 -17 -59 -2 0 8 -5 7 -15 -1 -13
-11 -18 -10 -31 6 -9 10 -13 13 -9 7 4 -9 -2 -13 -20 -13 -18 0 -24 4 -19 13
6 9 4 9 -8 -1 -13 -10 -17 -10 -21 0 -4 10 -6 10 -6 -1 -1 -11 -6 -10 -23 5
-12 10 -18 13 -14 7 4 -8 1 -13 -8 -13 -9 0 -16 6 -16 13 0 8 -4 7 -10 -3 -9
-13 -10 -13 -10 0 0 12 -2 12 -9 2 -12 -20 -16 -19 -42 3 -12 11 -19 14 -14 6z"/>
</g>
</svg>
