<?xml version="1.0" encoding="utf-8"?>
<!-- Generator: Adobe Illustrator 25.4.1, SVG Export Plug-In . SVG Version: 6.00 Build 0)  -->
<svg version="1.1" id="Layer_1" xmlns="http://www.w3.org/2000/svg" xmlns:xlink="http://www.w3.org/1999/xlink" x="0px" y="0px"
	 viewBox="0 0 872.01 234.35" style="enable-background:new 0 0 872.01 234.35;" xml:space="preserve">
<style type="text/css">
	.st0{fill:#FFFFFF;}
</style>
<path class="st0" d="M225.04,97.08V10.45l31.07,0.12c12.84,0,24.12,7.8,24.12,21.59c0,9.6-6.96,17.4-16.08,19.56v0.24
	c11.76,1.92,19.68,9.6,19.68,21.96c0,11.4-6.96,23.16-25.8,23.16H225.04z M251.68,48.61c10.08,0,20.16-3.96,20.16-15.72
	c0-12.6-10.32-15.12-20.52-15.24h-18.48v30.96H251.68z M232.84,89.88h19.08c14.88,0.24,23.52-3.72,23.52-17.04
	c0-14.76-11.88-17.04-28.2-17.04h-14.4V89.88z M329.56,54.61c-0.72-9.84-5.76-12.96-14.28-12.96c-7.56,0-13.8,2.28-14.76,10.44
	h-7.68c1.8-12.36,11.04-17.04,22.56-17.04c13.32,0,21.6,6.12,21.36,19.92v28.56c-0.12,4.68,0.36,9.48,0.6,13.56h-7.44l-0.24-8.88
	h-0.24l-0.36,0.84c-2.64,5.04-10.68,9.84-18.84,9.84c-11.16,0-20.04-6.84-20.04-18.6c0-8.16,4.92-14.4,12.12-17.4
	c8.04-3.48,18.48-2.28,27.24-2.76V54.61z M311.56,92.28c15.72,0,18.72-12.96,18-25.56C319.36,67.08,298,65.16,298,80.28
	C298,88.44,304.24,92.28,311.56,92.28z M370.72,35.05c11.4,0,21,3.96,21.96,16.68h-7.8c-0.72-7.56-7.44-10.08-14.88-10.08
	c-6.72,0-13.56,2.64-13.56,9.72c0,8.88,11.64,8.04,27.96,13.8c6.24,2.16,10.2,7.56,10.2,14.04c0,13.56-12.6,19.68-25.32,19.68
	c-10.44,0-22.44-4.92-22.68-18.24h7.8c0.6,9,8.52,11.64,16.68,11.64c7.68,0,15.72-3.6,15.72-12c0-8.64-9.48-10.08-19.08-12.24
	c-9.48-2.28-19.08-5.04-19.08-16.2C348.64,39.37,360.16,35.05,370.72,35.05z M413.8,61.45l29.16-24.6h9.24l-30.47,26.04l32.87,34.2
	h-9.12L413.8,64.45v32.63h-7.2V10.45h7.2V61.45z M469,19.45h-8.4v-9h8.4V19.45z M468.4,36.85v60.23h-7.2V36.85H468.4z M486.52,97.08
	h-7.2V50.41c0-4.68-0.36-9.48-0.6-13.56h7.44l0.36,8.88l0.24,0.24c4.2-7.44,11.04-10.92,18.84-10.92c19.68,0,21.24,17.4,21.24,24.35
	v37.68h-7.2V58.21c0-10.44-6-16.56-15.84-16.56c-11.88,0-17.28,9.96-17.28,20.76V97.08z M224.45,112.75h58.07v14.4h-39.47v20.28H280
	v14.4h-36.95v23.16h40.79v14.4h-59.39V112.75z M311.8,146.11l0.24,0.36c3.72-5.52,9.36-9.12,18.48-9.12c6,0,17.64,4.44,19.8,13.2
	c0.96,3.72,1.2,7.56,1.2,9.6v39.23h-18v-36.23c-0.12-6.48-1.92-13.8-10.8-13.8c-5.64,0-10.56,5.04-10.8,13.8v36.23h-18v-60.23h17.88
	V146.11z M420.39,193.98c0,14.04-3.12,29.4-29.52,29.16c-13.32,0-27.6-3.24-27.96-19.44h17.04c0.24,5.4,5.04,7.44,9.96,7.44
	c13.68,0,13.2-12.48,12.48-21.24h-0.24c-3.72,5.88-10.08,8.28-16.92,8.28c-16.32,0-24.72-15.36-24.72-30
	c0-15.36,8.76-30.83,25.56-30.83c8.04,0,13.2,2.64,16.08,8.76h0.24v-6.96h18V193.98z M390.76,186.18c9.84,0,11.64-10.08,11.64-17.88
	c0-8.88-1.8-18.96-11.64-18.96c-9.84,0-11.64,10.08-11.64,18.96C379.12,176.1,380.92,186.18,390.76,186.18z M451.72,112.75v15.48
	h-19.2v-15.48H451.72z M451.12,139.15v60.23h-18v-60.23H451.12z M482.2,146.11l0.24,0.36c3.72-5.52,9.36-9.12,18.48-9.12
	c6,0,17.64,4.44,19.8,13.2c0.96,3.72,1.2,7.56,1.2,9.6v39.23h-18v-36.23c-0.12-6.48-1.92-13.8-10.8-13.8
	c-5.64,0-10.56,5.04-10.8,13.8v36.23h-18v-60.23h17.88V146.11z M549.76,174.06c0,7.8,1.08,15.12,10.32,15.12
	c6.24,0,9.36-2.28,11.04-7.8h16.2c-1.56,14.88-13.2,19.8-27.24,19.8c-20.64,0-28.91-11.64-28.91-31.8
	c0-18.12,10.56-32.04,28.91-32.04c11.28,0,20.64,3.84,25.68,14.4c1.68,3.36,2.52,6.96,3,10.8c0.48,3.72,0.48,7.56,0.48,11.52H549.76
	z M570.63,162.07c0-6.6-1.8-12.72-10.56-12.72c-8.28,0-10.08,6.12-10.32,12.72H570.63z M614.08,174.06c0,7.8,1.08,15.12,10.32,15.12
	c6.24,0,9.36-2.28,11.04-7.8h16.2c-1.56,14.88-13.2,19.8-27.23,19.8c-20.64,0-28.92-11.64-28.92-31.8
	c0-18.12,10.56-32.04,28.92-32.04c11.28,0,20.64,3.84,25.68,14.4c1.68,3.36,2.52,6.96,3,10.8c0.48,3.72,0.48,7.56,0.48,11.52H614.08
	z M634.96,162.07c0-6.6-1.8-12.72-10.56-12.72c-8.28,0-10.08,6.12-10.32,12.72H634.96z M677.56,139.15l0.36,10.92h0.24
	c3.84-9.48,11.52-11.88,20.52-11.64v15.96h-7.8c-3,0.24-6.96,1.92-8.76,4.44c-1.92,3.36-2.28,6.72-2.4,10.68v29.87h-17.88
	l-0.12-48.23c0-2.52-0.36-7.56-0.6-12H677.56z M725.32,112.75v15.48h-19.2v-15.48H725.32z M724.72,139.15v60.23h-18v-60.23H724.72z
	 M755.8,146.11l0.24,0.36c3.72-5.52,9.36-9.12,18.48-9.12c6,0,17.64,4.44,19.8,13.2c0.96,3.72,1.2,7.56,1.2,9.6v39.23h-18v-36.23
	c-0.12-6.48-1.92-13.8-10.8-13.8c-5.64,0-10.56,5.04-10.8,13.8v36.23h-18v-60.23h17.88V146.11z M864.39,193.98
	c0,14.04-3.12,29.4-29.51,29.16c-13.32,0-27.59-3.24-27.96-19.44h17.04c0.24,5.4,5.04,7.44,9.96,7.44
	c13.68,0,13.2-12.48,12.48-21.24h-0.24c-3.72,5.88-10.08,8.28-16.92,8.28c-16.32,0-24.71-15.36-24.71-30
	c0-15.36,8.76-30.83,25.56-30.83c8.04,0,13.2,2.64,16.08,8.76h0.24v-6.96h18V193.98z M834.76,186.18c9.84,0,11.64-10.08,11.64-17.88
	c0-8.88-1.8-18.96-11.64-18.96s-11.64,10.08-11.64,18.96C823.12,176.1,824.92,186.18,834.76,186.18z"/>
<path class="st0" d="M47.11,94.3h-23V56.36h22.82c8.04,0,13.96,1.48,17.76,4.45c3.8,2.97,5.7,7.79,5.7,14.47
	c0,6.06-2.06,10.74-6.17,14.05C60.1,92.64,54.4,94.3,47.11,94.3z M67.42,148.28c4.14-3.65,6.21-8.72,6.21-15.21
	c0-14.03-7.17-21.21-21.52-21.52H24.1v42.2h26.06C57.52,153.75,63.27,151.92,67.42,148.28z M197.42,10.38v189h-189v-26.89h41.47
	c15.15,0,26.79-3.4,34.92-10.2c8.13-6.8,12.2-16.54,12.2-29.22c0-7.66-1.99-14.24-5.98-19.71c-3.99-5.47-9.63-9.2-16.93-11.18
	c6.43-2.72,11.32-6.55,14.65-11.5c3.34-4.95,5.01-10.51,5.01-16.69c0-12.12-3.99-21.24-11.96-27.36c-7.98-6.12-19.6-9.18-34.87-9.18
	H8.42V10.38H197.42z M170.42,153.86h-64.17c-2.27,6.19-5.86,11.43-10.88,15.63c-1.24,1.04-2.57,1.99-3.96,2.89h79.01V153.86z
	 M143.42,111.55V94.3h-38.49v17.25H143.42z M170.42,37.38H89.13c0.98,0.62,1.95,1.25,2.85,1.94c5.58,4.28,9.42,9.87,11.53,16.76
	h66.91V37.38z"/>
</svg>
